<svg id="Objects" xmlns="http://www.w3.org/2000/svg" xmlns:xlink="http://www.w3.org/1999/xlink" viewBox="0 0 457 103"><defs><style>.cls-1{fill:url(#Gradiente_sem_nome_19);}</style><linearGradient id="Gradiente_sem_nome_19" x1="85.34" y1="-134.56" x2="155.83" y2="-205.05" gradientTransform="matrix(-0.44, -0.9, 0.9, -0.44, 254.73, 88.13)" gradientUnits="userSpaceOnUse"><stop offset="0" stop-color="#00a650"/><stop offset="1" stop-color="#3483fa"/></linearGradient></defs><title>Artboard 1</title><path class="cls-1" d="M25.86,4.17A2.77,2.77,0,0,0,25.12,8a3.25,3.25,0,0,0,.23.29L20,13.83A2.76,2.76,0,0,0,16,17.47a2.82,2.82,0,0,0,.87.82L4,42.72a2.76,2.76,0,0,0-3.52,4,2.73,2.73,0,0,0,3,1.11L14.93,91.32a2.85,2.85,0,0,0-1.16.44,2.76,2.76,0,1,0,4.28,2.66l40.27,3.24a2.76,2.76,0,1,0,5-1.67,4,4,0,0,0-.26-.32L95.26,62.05a2.76,2.76,0,0,0,4.2-3.53,2.76,2.76,0,0,0-3.23-1.05l-18-41.1a2.76,2.76,0,0,0-3.53-4.2,2.56,2.56,0,0,0-.8.84L30.14,6.81a2.76,2.76,0,0,0-4.28-2.64Zm-.24,4.4a2.77,2.77,0,0,0,3,.39l3.78,5.61a2.74,2.74,0,0,0-.87,2.12L21,15.94a2.73,2.73,0,0,0-.48-1.56,1.93,1.93,0,0,0-.22-.28ZM73.91,16a2.75,2.75,0,0,0,2.26,1.21L71.82,56.74a2.73,2.73,0,0,0-1.93.4L36,18.7A2.76,2.76,0,0,0,37,17.07l36.51-3A2.78,2.78,0,0,0,73.91,16ZM16.15,91.42l9.31-38.1A2.73,2.73,0,0,0,27.8,53,2.76,2.76,0,0,0,29,51l39.65,8.09A2.82,2.82,0,0,0,69,60.91L17.55,92.43A2.69,2.69,0,0,0,16.15,91.42ZM35.7,18.92,69.58,57.37a2.83,2.83,0,0,0-.85,1.33L29,50.59a2.83,2.83,0,0,0-.47-1.46A2.74,2.74,0,0,0,26.77,48l7-28.67A2.77,2.77,0,0,0,35.7,18.92Zm-18.54-.45A2.77,2.77,0,0,0,21,16.32l10.56.76a2.62,2.62,0,0,0,.83,1.52L4.76,43.26a3.14,3.14,0,0,0-.4-.34ZM3.91,47.71a3,3,0,0,0,.43-.23,2.76,2.76,0,0,0,.74-3.83.86.86,0,0,0-.07-.1l27.66-24.7a2.49,2.49,0,0,0,.73.36l-7,28.72a2.76,2.76,0,0,0-1.68.46,2.72,2.72,0,0,0-.95,1.13L5.68,45.83l-.08.37,18,3.68A2.72,2.72,0,0,0,24,52.22a2.67,2.67,0,0,0,1.13,1L15.78,91.33a2.38,2.38,0,0,0-.46,0ZM18.08,94a2.72,2.72,0,0,0-.33-1.29L69.26,61.22a2.8,2.8,0,0,0,1.51.93L61.53,94.82a2.76,2.76,0,0,0-2,.43,2.73,2.73,0,0,0-1.2,2Zm44.74,1.37a2.58,2.58,0,0,0-.92-.5l9.25-32.7a2.83,2.83,0,0,0,1.78-.46,2.76,2.76,0,0,0,1.2-2l20.28.3a2.83,2.83,0,0,0,.47,1.57l.13.17ZM95.88,57.62l-.25.15a2.73,2.73,0,0,0-1.18,1.88l-20.31-.31a2.76,2.76,0,0,0-1.94-2.51l4.36-39.65a2.66,2.66,0,0,0,1.18-.44l.13-.1ZM73.66,13.37a2,2,0,0,0-.11.32L37,16.68A2.67,2.67,0,0,0,36.53,15a2.76,2.76,0,0,0-3.83-.74l0,0L28.91,8.77l0,0a2.73,2.73,0,0,0,1.11-1.56Z"/><path d="M138.79,6.72H142v31h-3.06V11.08l.32,1.36-9.33,20.93h-2.17l-9.32-20.5.32-1.79V37.67h-3.07V6.72h3.22l9.94,22.35Z"/><path d="M151,6.72H154v31H151Zm2.1,0h17.78V9.57H153.08Zm0,14.15h15.44v2.86H153.08Zm0,14h17.78v2.85H153.08Z"/><path d="M178.34,6.7h3.07v31h-3.07Zm1.9,15H190.8a6,6,0,0,0,3-.76,5.09,5.09,0,0,0,2-2.14,7.08,7.08,0,0,0,.74-3.19,6.86,6.86,0,0,0-.72-3.2,5.15,5.15,0,0,0-2-2.14,6,6,0,0,0-3-.75H180.24V6.7h10.39a9.64,9.64,0,0,1,4.71,1.1,7.74,7.74,0,0,1,3.15,3.14,9.55,9.55,0,0,1,1.12,4.7,9.51,9.51,0,0,1-1.12,4.69,7.71,7.71,0,0,1-3.16,3.14,9.69,9.69,0,0,1-4.7,1.11H180.24Zm9.92,1.89,2.83-1,7.92,15h-3.66Z"/><path d="M214.14,38l-2.44-1.43a9.77,9.77,0,0,1-3.78-4,13.2,13.2,0,0,1-1.34-6.07V18a13.2,13.2,0,0,1,1.34-6.07,9.83,9.83,0,0,1,3.78-4.06,11.77,11.77,0,0,1,10.55-.35A10.25,10.25,0,0,1,226,10.56a11.34,11.34,0,0,1,2,4.61H225a8.07,8.07,0,0,0-1.67-3.09A8.27,8.27,0,0,0,220.57,10a7.34,7.34,0,0,0-3.22-.75,7.43,7.43,0,0,0-4,1.09,7.19,7.19,0,0,0-2.71,3.05,10.45,10.45,0,0,0-.95,4.57v8.49A10.45,10.45,0,0,0,210.6,31a7.1,7.1,0,0,0,2.71,3,7.51,7.51,0,0,0,4,1.08,7.88,7.88,0,0,0,3.22-.7,7.79,7.79,0,0,0,2.71-2A8,8,0,0,0,225,29.22H228a11.41,11.41,0,0,1-2,4.61,10.23,10.23,0,0,1-3.75,3.07A11,11,0,0,1,217.35,38Z"/><path d="M242.65,6.72h3.71l11.41,31h-3.41L244.51,9.93l-9.86,27.74h-3.41ZM236.5,27.3h16.29v2.86H236.5Z"/><path d="M263.76,6.72h3.07v31h-3.07Zm2.94,28.1h7q4.31,0,6.44-2t2.14-6.06V17.64q0-4.05-2.14-6.06t-6.44-2h-7V6.72h6.88a15.38,15.38,0,0,1,6.55,1.22,8.27,8.27,0,0,1,3.92,3.69,13.15,13.15,0,0,1,1.3,6.18v8.77A13,13,0,0,1,284,32.74a8.36,8.36,0,0,1-3.93,3.7,15.39,15.39,0,0,1-6.56,1.23H266.7Z"/><path d="M297.18,36.65a8.86,8.86,0,0,1-3.71-3.9,13.69,13.69,0,0,1-1.28-6.17V17.81a13.76,13.76,0,0,1,1.28-6.18,8.84,8.84,0,0,1,3.71-3.89,13.61,13.61,0,0,1,11.78,0,8.84,8.84,0,0,1,3.71,3.89A13.76,13.76,0,0,1,314,17.81v8.77a13.69,13.69,0,0,1-1.28,6.17,8.86,8.86,0,0,1-3.71,3.9,13.61,13.61,0,0,1-11.78,0Zm10.12-2.5A6.43,6.43,0,0,0,310,31.27a10.3,10.3,0,0,0,.91-4.54V17.66a10.37,10.37,0,0,0-.91-4.55,6.46,6.46,0,0,0-2.67-2.87,9.53,9.53,0,0,0-8.46,0,6.46,6.46,0,0,0-2.67,2.87,10.37,10.37,0,0,0-.91,4.55v9.07a10.3,10.3,0,0,0,.91,4.54,6.43,6.43,0,0,0,2.67,2.88,9.53,9.53,0,0,0,8.46,0Z"/><path d="M335.3,6.72h3.06v31H335.3Zm2.17,28.1h17.71v2.85H337.47Z"/><path d="M365.3,37.67h-3.06V6.72h3.06Z"/><path d="M372.57,6.72h3.24l8.92,26.61,8.92-26.61h3.24l-10.73,31H383.3Z"/><path d="M402.88,6.7h3.06v31h-3.06Zm1.89,15h10.56a6,6,0,0,0,3-.76,5.15,5.15,0,0,0,2-2.14,7.07,7.07,0,0,0,.73-3.19,7,7,0,0,0-.71-3.2,5.21,5.21,0,0,0-2-2.14,6.06,6.06,0,0,0-3.06-.75H404.77V6.7h10.39a9.71,9.71,0,0,1,4.72,1.1A7.87,7.87,0,0,1,423,10.94a9.66,9.66,0,0,1,1.11,4.7A9.62,9.62,0,0,1,423,20.33a7.77,7.77,0,0,1-3.16,3.14,9.75,9.75,0,0,1-4.71,1.11H404.77Zm9.92,1.89,2.83-1,7.92,15h-3.66Z"/><path d="M432.61,6.72h3.06v31h-3.06Zm2.1,0h17.78V9.57H434.71Zm0,14.15h15.44v2.86H434.71Zm0,14h17.78v2.85H434.71Z"/><path d="M114.31,47h6.94v49.7h-6.94Zm4.11,43.24h13.46c3.54,0,6.11-.67,7.73-2A6.94,6.94,0,0,0,142,82.52v-.1a9.94,9.94,0,0,0-.87-4.34,6,6,0,0,0-2.75-2.79,10.44,10.44,0,0,0-4.82-1H118.42V68h15.17c2.58,0,4.52-.61,5.83-1.81a7,7,0,0,0,2-5.37,6.87,6.87,0,0,0-2.18-5.57q-2.19-1.85-6.57-1.85H118.42V47H133.9A17.87,17.87,0,0,1,142,48.61a11,11,0,0,1,4.85,4.65,15.07,15.07,0,0,1,1.61,7.18,11.56,11.56,0,0,1-1,4.8,9.8,9.8,0,0,1-3,3.83,11.43,11.43,0,0,1-5,2.14,10.82,10.82,0,0,1,5.19,2.13,11.13,11.13,0,0,1,3.35,4.22A12.88,12.88,0,0,1,149.08,83v.11a14.05,14.05,0,0,1-1.78,7.11A12,12,0,0,1,142.21,95a17,17,0,0,1-7.73,1.67H118.42Z"/><path d="M165.81,95a14.22,14.22,0,0,1-6-6.32,22.35,22.35,0,0,1-2.05-10V47h7v32c0,3.62.91,6.43,2.74,8.41s4.4,3,7.72,3,5.94-1,7.78-3,2.75-4.79,2.75-8.41V47h7V78.69a22.35,22.35,0,0,1-2.05,10,14.19,14.19,0,0,1-6,6.32,19.29,19.29,0,0,1-9.47,2.17A19.08,19.08,0,0,1,165.81,95Z"/><path d="M214.32,97.18l-3.21-.68a26,26,0,0,1-6-2A25.44,25.44,0,0,1,199.9,91l4.34-5.33a19.63,19.63,0,0,0,6.26,3.69,21.7,21.7,0,0,0,7.41,1.23c3.6,0,6.39-.66,8.38-2a6.43,6.43,0,0,0,3-5.66v0a6,6,0,0,0-1.35-4.12,8.07,8.07,0,0,0-3.49-2.25,38.45,38.45,0,0,0-5.52-1.35.51.51,0,0,0-.22,0,.78.78,0,0,1-.22,0L218,75a53,53,0,0,1-8.12-1.94,11.35,11.35,0,0,1-5.35-3.93c-1.48-1.9-2.22-4.61-2.22-8.11v0a14.44,14.44,0,0,1,2.07-7.88,13,13,0,0,1,6-5,24,24,0,0,1,9.54-1.71,23.64,23.64,0,0,1,5.24.58,26,26,0,0,1,5.1,1.73,28.4,28.4,0,0,1,4.93,2.89l-4,5.53a23,23,0,0,0-5.66-3.12,16.08,16.08,0,0,0-5.65-1q-5.1,0-7.92,2a6.67,6.67,0,0,0-2.82,5.76v0a5.48,5.48,0,0,0,1.46,4,8.63,8.63,0,0,0,3.62,2.17,53.82,53.82,0,0,0,6,1.46l.26,0,.25,0,.38.07.38.07a41.08,41.08,0,0,1,7.53,2.18A11.77,11.77,0,0,1,234.13,75a12.92,12.92,0,0,1,2,7.71v.06A13.67,13.67,0,0,1,234,90.57a13.39,13.39,0,0,1-6.24,4.92,25.69,25.69,0,0,1-9.86,1.69Z"/><path d="M255.82,97.18l-3.91-2.29a15.48,15.48,0,0,1-6.07-6.49,21,21,0,0,1-2.16-9.74V65a21,21,0,0,1,2.16-9.74,15.65,15.65,0,0,1,6.07-6.51A17.48,17.48,0,0,1,261,46.46a17,17,0,0,1,7.86,1.83,16.58,16.58,0,0,1,6,5.18,19.36,19.36,0,0,1,3.26,7.76H271a11.13,11.13,0,0,0-2.17-4.16,10.76,10.76,0,0,0-3.57-2.82,10,10,0,0,0-9.57.48,9.83,9.83,0,0,0-3.56,4.12A14.22,14.22,0,0,0,250.83,65V78.66a14.26,14.26,0,0,0,1.26,6.15A9.39,9.39,0,0,0,261,90.38a10.3,10.3,0,0,0,4.26-.92,10.06,10.06,0,0,0,3.55-2.74,10.8,10.8,0,0,0,2.17-4.3h7.14a19.31,19.31,0,0,1-3.28,7.76,16.79,16.79,0,0,1-6,5.18A17.15,17.15,0,0,1,261,97.18Z"/><path d="M299.5,47h5.95l18.32,49.7h-7.52L302.47,56.58,288.7,96.67h-7.52Zm-9.88,32.17h26.15v6.63H289.62Z"/><path d="M331.29,47h7v49.7h-7ZM336,90h11.25q5.5,0,8.53-2.85t3-8V64.51q0-5.21-3-8.05c-2-1.9-4.86-2.86-8.53-2.86H336V47h11a22.94,22.94,0,0,1,10.22,2.09,14.53,14.53,0,0,1,6.46,6.08A19.49,19.49,0,0,1,366,64.78V78.86a19.46,19.46,0,0,1-2.23,9.64,14.52,14.52,0,0,1-6.47,6.09A23.09,23.09,0,0,1,347,96.67H336Z"/><path d="M383.14,94.91A15.48,15.48,0,0,1,377,88.48a20.52,20.52,0,0,1-2.17-9.62V64.78A20.58,20.58,0,0,1,377,55.16a15.54,15.54,0,0,1,6.14-6.43,19.62,19.62,0,0,1,18.32,0,15.52,15.52,0,0,1,6.13,6.43,20.46,20.46,0,0,1,2.17,9.62V78.86a20.4,20.4,0,0,1-2.17,9.62,15.46,15.46,0,0,1-6.13,6.43,19.62,19.62,0,0,1-18.32,0Zm14.58-6A9.32,9.32,0,0,0,401.34,85a13,13,0,0,0,1.28-5.9V64.54a13,13,0,0,0-1.28-5.89,9.32,9.32,0,0,0-3.62-3.93,11.26,11.26,0,0,0-10.84,0,9.25,9.25,0,0,0-3.62,3.93A12.84,12.84,0,0,0,382,64.54V79.1a12.88,12.88,0,0,0,1.28,5.9,9.25,9.25,0,0,0,3.62,3.93,11.33,11.33,0,0,0,10.84,0Z"/><path d="M420.36,46.94h7V96.67h-7Zm3,22.08h17a6.53,6.53,0,0,0,3.53-1,6.34,6.34,0,0,0,2.37-2.71,10.21,10.21,0,0,0,0-8.11,6.32,6.32,0,0,0-2.36-2.71,6.47,6.47,0,0,0-3.54-1h-17V46.94h16.68a15.51,15.51,0,0,1,7.57,1.78,12.41,12.41,0,0,1,5.06,5,15.33,15.33,0,0,1,1.79,7.53,15.24,15.24,0,0,1-1.81,7.54,12.49,12.49,0,0,1-5.07,5,15.47,15.47,0,0,1-7.54,1.78H423.4Zm13.54,5.09,6.94-1.57,12.71,24.13h-8.27Z"/></svg>