<svg id="Objects" xmlns="http://www.w3.org/2000/svg" xmlns:xlink="http://www.w3.org/1999/xlink" viewBox="0 0 100 98"><defs><style>.cls-1{fill:url(#Gradiente_sem_nome_19);}</style><linearGradient id="Gradiente_sem_nome_19" x1="85.34" y1="-137.56" x2="155.83" y2="-208.05" gradientTransform="matrix(-0.44, -0.9, 0.9, -0.44, 257.42, 83.8)" gradientUnits="userSpaceOnUse"><stop offset="0" stop-color="#00a650"/><stop offset="1" stop-color="#3483fa"/></linearGradient></defs><title>Artboard 1</title><path class="cls-1" d="M25.86,1.17A2.77,2.77,0,0,0,25.12,5a3.25,3.25,0,0,0,.23.29L20,10.83A2.76,2.76,0,0,0,16,14.47a2.82,2.82,0,0,0,.87.82L4,39.72a2.76,2.76,0,0,0-3.52,4,2.73,2.73,0,0,0,3,1.11L14.93,88.32a2.85,2.85,0,0,0-1.16.44,2.76,2.76,0,1,0,4.28,2.66l40.27,3.24a2.76,2.76,0,1,0,5-1.67,4,4,0,0,0-.26-.32L95.26,59.05a2.76,2.76,0,0,0,4.2-3.53,2.76,2.76,0,0,0-3.23-1.05l-18-41.1a2.76,2.76,0,0,0-3.53-4.2,2.56,2.56,0,0,0-.8.84L30.14,3.81a2.76,2.76,0,0,0-4.28-2.64Zm-.24,4.4a2.77,2.77,0,0,0,3,.39l3.78,5.61a2.74,2.74,0,0,0-.87,2.12L21,12.94a2.73,2.73,0,0,0-.48-1.56,1.93,1.93,0,0,0-.22-.28ZM73.91,13a2.75,2.75,0,0,0,2.26,1.21L71.82,53.74a2.73,2.73,0,0,0-1.93.4L36,15.7A2.76,2.76,0,0,0,37,14.07l36.51-3A2.78,2.78,0,0,0,73.91,13ZM16.15,88.42l9.31-38.1A2.73,2.73,0,0,0,27.8,50,2.76,2.76,0,0,0,29,48l39.65,8.09A2.82,2.82,0,0,0,69,57.91L17.55,89.43A2.69,2.69,0,0,0,16.15,88.42ZM35.7,15.92,69.58,54.37a2.83,2.83,0,0,0-.85,1.33L29,47.59a2.83,2.83,0,0,0-.47-1.46A2.74,2.74,0,0,0,26.77,45l7-28.67A2.77,2.77,0,0,0,35.7,15.92Zm-18.54-.45A2.77,2.77,0,0,0,21,13.32l10.56.76a2.62,2.62,0,0,0,.83,1.52L4.76,40.26a3.14,3.14,0,0,0-.4-.34ZM3.91,44.71a3,3,0,0,0,.43-.23,2.76,2.76,0,0,0,.74-3.83.86.86,0,0,0-.07-.1l27.66-24.7a2.49,2.49,0,0,0,.73.36l-7,28.72a2.76,2.76,0,0,0-1.68.46,2.72,2.72,0,0,0-.95,1.13L5.68,42.83l-.08.37,18,3.68A2.72,2.72,0,0,0,24,49.22a2.67,2.67,0,0,0,1.13,1L15.78,88.33a2.38,2.38,0,0,0-.46,0ZM18.08,91a2.72,2.72,0,0,0-.33-1.29L69.26,58.22a2.8,2.8,0,0,0,1.51.93L61.53,91.82a2.76,2.76,0,0,0-2,.43,2.73,2.73,0,0,0-1.2,2Zm44.74,1.37a2.58,2.58,0,0,0-.92-.5l9.25-32.7a2.83,2.83,0,0,0,1.78-.46,2.76,2.76,0,0,0,1.2-2l20.28.3a2.83,2.83,0,0,0,.47,1.57l.13.17ZM95.88,54.62l-.25.15a2.73,2.73,0,0,0-1.18,1.88l-20.31-.31a2.76,2.76,0,0,0-1.94-2.51l4.36-39.65a2.66,2.66,0,0,0,1.18-.44l.13-.1ZM73.66,10.37a2,2,0,0,0-.11.32L37,13.68A2.67,2.67,0,0,0,36.53,12a2.76,2.76,0,0,0-3.83-.74l0,0L28.91,5.77l0,0a2.73,2.73,0,0,0,1.11-1.56Z"/></svg>